<?xml version="1.0" standalone="no"?>
<!DOCTYPE svg PUBLIC "-//W3C//DTD SVG 20010904//EN"
 "http://www.w3.org/TR/2001/REC-SVG-20010904/DTD/svg10.dtd">
<svg version="1.0" xmlns="http://www.w3.org/2000/svg"
 width="40px" height="40px" viewBox="0 0 512.000000 512.000000"
 preserveAspectRatio="xMidYMid meet">

<g transform="translate(0.000000,512.000000) scale(0.100000,-0.100000)"
fill="#fff" stroke="none">
<path d="M1195 4036 c-40 -17 -95 -72 -111 -113 -11 -25 -14 -109 -14 -377 l0
-345 -463 -3 -463 -3 -42 -28 c-60 -39 -93 -94 -99 -164 -7 -80 31 -154 102
-198 l48 -30 459 -3 458 -3 0 -342 c0 -309 2 -346 19 -382 48 -107 186 -155
289 -101 15 8 235 223 488 478 435 437 462 466 473 511 14 58 7 109 -24 162
-36 61 -902 921 -947 939 -45 19 -132 20 -173 2z"/>
</g>
</svg>
