<?xml version="1.0" standalone="no"?>
<!DOCTYPE svg PUBLIC "-//W3C//DTD SVG 20010904//EN"
 "http://www.w3.org/TR/2001/REC-SVG-20010904/DTD/svg10.dtd">
<svg version="1.0" xmlns="http://www.w3.org/2000/svg"
 width="40px" height="40px" viewBox="0 0 512.000000 512.000000"
 preserveAspectRatio="xMidYMid meet">

<g transform="translate(0.000000,512.000000) scale(0.100000,-0.100000)"
fill="#fff" stroke="none">
<path d="M3766 3185 c-31 -11 -142 -116 -498 -472 -252 -252 -466 -474 -475
-493 -26 -54 -22 -138 10 -191 14 -24 227 -245 474 -490 488 -487 474 -475
583 -467 68 5 120 36 160 95 l25 37 3 357 3 358 463 3 462 3 42 28 c60 39 93
94 99 164 7 80 -31 154 -102 198 l-48 30 -459 3 -458 3 0 342 c0 384 -2 391
-73 454 -59 51 -135 65 -211 38z"/>
</g>
</svg>
